<?xml version="1.0" encoding="utf-8"?>
<!-- Generator: Adobe Illustrator 26.2.1, SVG Export Plug-In . SVG Version: 6.00 Build 0)  -->
<svg version="1.1" id="Layer_1" xmlns="http://www.w3.org/2000/svg" xmlns:xlink="http://www.w3.org/1999/xlink" x="0px" y="0px"
	 viewBox="0 0 397.34 91.96" style="enable-background:new 0 0 397.34 91.96;" xml:space="preserve">
<style type="text/css">
	.st0{fill:#CFCFCE;}
	.st1{fill:#7DC2EB;}
	.st2{fill:#358CCB;}
</style>
<g>
	<g>
		<g>
			<path class="st0" d="M200.51,35.53c-1.43,0-2.6-0.24-3.52-0.74c-0.92-0.49-1.64-1.11-2.18-1.87c-0.54-0.75-0.91-1.57-1.12-2.45
				c-0.2-0.89-0.31-1.73-0.31-2.52V16.03h1.93v11.71c0,0.77,0.09,1.52,0.27,2.24c0.18,0.72,0.47,1.37,0.87,1.93
				c0.4,0.56,0.94,1.02,1.6,1.37c0.66,0.35,1.48,0.52,2.44,0.52c0.97,0,1.78-0.17,2.45-0.52c0.66-0.35,1.2-0.81,1.6-1.37
				c0.4-0.57,0.7-1.21,0.88-1.93c0.18-0.73,0.27-1.47,0.27-2.24V16.03h1.93v11.93c0,0.79-0.1,1.63-0.31,2.52
				c-0.21,0.88-0.58,1.71-1.11,2.45c-0.54,0.76-1.27,1.37-2.19,1.87C203.09,35.29,201.92,35.53,200.51,35.53"/>
		</g>
		<g>
			<polygon class="st0" points="219.74,35.05 217.81,35.05 217.81,17.75 211.44,17.75 211.44,16.04 226.11,16.04 226.11,17.75 
				219.74,17.75 			"/>
		</g>
		<g>
			<polygon class="st0" points="231.96,33.33 242.15,33.33 242.15,35.05 230.03,35.05 230.03,16.03 241.82,16.03 241.82,17.75 
				231.96,17.75 231.96,24.28 241.18,24.28 241.18,26 231.96,26 			"/>
		</g>
		<g>
			<path class="st1" d="M258.03,27.3h-2.07l-1.35,7.75h-1.26l1.35-7.75h-1.86l0.21-1.05h1.82l0.42-2.39
				c0.07-0.44,0.19-0.86,0.35-1.25c0.17-0.39,0.38-0.74,0.65-1.03c0.27-0.29,0.59-0.53,0.97-0.71c0.38-0.18,0.82-0.26,1.32-0.26
				c0.16,0,0.33,0.01,0.51,0.03c0.18,0.02,0.35,0.05,0.53,0.1l-0.3,1.11c-0.26-0.07-0.56-0.11-0.88-0.11c-0.3,0-0.56,0.06-0.78,0.17
				c-0.22,0.11-0.4,0.27-0.55,0.48c-0.15,0.2-0.26,0.45-0.35,0.72c-0.09,0.28-0.17,0.57-0.22,0.89l-0.39,2.26h2.11L258.03,27.3z"/>
		</g>
		<g>
			<path class="st1" d="M263.27,35.28c-0.59,0-1.14-0.09-1.64-0.28c-0.5-0.19-0.93-0.44-1.29-0.78c-0.36-0.33-0.64-0.73-0.84-1.2
				c-0.2-0.47-0.3-0.98-0.3-1.55c0-0.74,0.13-1.44,0.38-2.09c0.26-0.66,0.62-1.24,1.08-1.73c0.46-0.49,1.02-0.88,1.66-1.17
				c0.64-0.29,1.34-0.43,2.1-0.43c0.6,0,1.15,0.09,1.65,0.27c0.49,0.18,0.92,0.45,1.28,0.78c0.36,0.34,0.63,0.74,0.84,1.2
				c0.2,0.46,0.3,0.98,0.3,1.54c0,0.75-0.13,1.46-0.38,2.12c-0.26,0.67-0.61,1.24-1.08,1.74c-0.46,0.49-1.02,0.88-1.66,1.16
				C264.74,35.13,264.04,35.28,263.27,35.28 M267.18,29.91c0-0.4-0.06-0.78-0.19-1.12c-0.13-0.35-0.31-0.64-0.55-0.9
				c-0.24-0.25-0.54-0.45-0.89-0.59c-0.35-0.15-0.75-0.22-1.18-0.22c-0.55,0-1.06,0.12-1.52,0.35c-0.46,0.23-0.86,0.55-1.2,0.94
				c-0.34,0.4-0.61,0.86-0.8,1.38c-0.2,0.52-0.29,1.07-0.29,1.65c0,0.4,0.07,0.78,0.19,1.12c0.12,0.35,0.31,0.64,0.55,0.9
				c0.25,0.25,0.54,0.45,0.88,0.59c0.34,0.15,0.74,0.22,1.17,0.22c0.56,0,1.07-0.12,1.55-0.35c0.47-0.23,0.87-0.54,1.21-0.93
				c0.34-0.39,0.6-0.84,0.79-1.37C267.09,31.05,267.18,30.5,267.18,29.91"/>
		</g>
		<g>
			<path class="st1" d="M272.57,27.27c0.05-0.38,0.1-0.71,0.12-1.01h1.2c-0.03,0.24-0.06,0.5-0.09,0.79
				c-0.04,0.29-0.07,0.53-0.11,0.72h0.04c0.32-0.52,0.74-0.93,1.24-1.25c0.5-0.32,1.07-0.48,1.69-0.48c0.16,0,0.3,0.01,0.43,0.02
				c0.13,0.01,0.26,0.04,0.39,0.07l-0.3,1.2c-0.07-0.03-0.18-0.05-0.35-0.08c-0.17-0.02-0.34-0.04-0.52-0.04
				c-0.34,0-0.67,0.06-0.99,0.19c-0.33,0.13-0.63,0.32-0.89,0.59c-0.27,0.27-0.51,0.61-0.71,1.03c-0.21,0.42-0.36,0.92-0.46,1.51
				l-0.79,4.51h-1.26l1.2-6.86C272.46,27.95,272.52,27.64,272.57,27.27"/>
		</g>
		<g>
			<path class="st0" d="M11.34,35.05H9.22l8.22-19.02h1.88l8.17,19.02h-2.15l-2.09-5h-9.83L11.34,35.05z M14.13,28.28h8.38
				l-4.19-10.1L14.13,28.28z"/>
		</g>
		<g>
			<polygon class="st0" points="33.29,33.33 42.16,33.33 42.16,35.05 31.36,35.05 31.36,16.03 33.29,16.03 			"/>
		</g>
		<g>
			<polygon class="st0" points="48.06,33.33 56.93,33.33 56.93,35.05 46.13,35.05 46.13,16.03 48.06,16.03 			"/>
		</g>
		<g>
			<polygon class="st0" points="62.84,33.33 73.02,33.33 73.02,35.05 60.91,35.05 60.91,16.03 72.7,16.03 72.7,17.75 62.84,17.75 
				62.84,24.28 72.05,24.28 72.05,26 62.84,26 			"/>
		</g>
		<g>
			<polygon class="st0" points="91.37,32.23 91.42,32.23 91.42,16.03 93.35,16.03 93.35,35.05 90.93,35.05 79.87,18.7 79.81,18.7 
				79.81,35.05 77.88,35.05 77.88,16.03 80.3,16.03 			"/>
		</g>
		<g>
			<rect x="107.27" y="16.03" class="st0" width="1.93" height="19.02"/>
		</g>
		<g>
			<polygon class="st0" points="128.81,32.23 128.87,32.23 128.87,16.03 130.8,16.03 130.8,35.05 128.38,35.05 117.32,18.7 
				117.26,18.7 117.26,35.05 115.33,35.05 115.33,16.03 117.75,16.03 			"/>
		</g>
		<g>
			<path class="st0" d="M146.14,19.09c-0.42-0.57-0.94-1.03-1.59-1.38c-0.64-0.35-1.42-0.53-2.33-0.53c-0.47,0-0.94,0.07-1.43,0.21
				c-0.48,0.14-0.92,0.36-1.32,0.66c-0.39,0.3-0.71,0.67-0.95,1.12c-0.24,0.45-0.36,0.98-0.36,1.58c0,0.61,0.12,1.11,0.35,1.51
				c0.23,0.39,0.54,0.73,0.93,1.01c0.38,0.28,0.82,0.51,1.31,0.69c0.49,0.18,1,0.36,1.54,0.54c0.66,0.21,1.33,0.45,2,0.7
				c0.67,0.25,1.27,0.58,1.81,0.98c0.53,0.4,0.97,0.91,1.31,1.53c0.34,0.62,0.51,1.4,0.51,2.35c0,0.95-0.18,1.77-0.54,2.46
				c-0.36,0.69-0.83,1.26-1.41,1.71c-0.58,0.45-1.24,0.78-1.98,1c-0.74,0.21-1.49,0.32-2.24,0.32c-0.57,0-1.15-0.06-1.72-0.18
				c-0.57-0.12-1.12-0.29-1.64-0.52c-0.52-0.23-1-0.53-1.45-0.89c-0.45-0.36-0.84-0.77-1.18-1.24l1.67-1.23
				c0.41,0.68,0.99,1.25,1.73,1.71c0.74,0.46,1.62,0.69,2.62,0.69c0.48,0,0.98-0.07,1.48-0.23c0.5-0.15,0.95-0.38,1.35-0.7
				c0.4-0.32,0.74-0.7,1-1.16c0.26-0.46,0.39-0.99,0.39-1.6c0-0.66-0.13-1.21-0.39-1.65c-0.26-0.44-0.61-0.81-1.04-1.1
				c-0.43-0.29-0.92-0.54-1.47-0.74c-0.56-0.2-1.14-0.4-1.75-0.59c-0.63-0.19-1.24-0.42-1.85-0.67c-0.61-0.25-1.16-0.58-1.64-0.98
				c-0.48-0.4-0.87-0.9-1.17-1.49c-0.3-0.59-0.44-1.32-0.44-2.18c0-0.91,0.18-1.7,0.55-2.36c0.37-0.66,0.85-1.21,1.44-1.64
				c0.59-0.43,1.25-0.75,1.96-0.94c0.72-0.2,1.43-0.29,2.12-0.29c1.29,0,2.39,0.23,3.3,0.68c0.91,0.46,1.6,1,2.07,1.63L146.14,19.09
				z"/>
		</g>
		<g>
			<polygon class="st0" points="158.77,35.05 156.83,35.05 156.83,17.75 150.47,17.75 150.47,16.04 165.13,16.04 165.13,17.75 
				158.77,17.75 			"/>
		</g>
		<g>
			<rect x="169.05" y="16.03" class="st0" width="1.94" height="19.02"/>
		</g>
		<g>
			<polygon class="st0" points="183.21,35.05 181.28,35.05 181.28,17.75 174.91,17.75 174.91,16.04 189.58,16.04 189.58,17.75 
				183.21,17.75 			"/>
		</g>
	</g>
	<g>
		<path class="st2" d="M30.36,73.04h0.08V48.26h2.97V77.5H29.7L12.28,52.48h-0.08V77.5H9.22V48.26h3.72L30.36,73.04z"/>
		<path class="st2" d="M44.32,74.77h15.65v2.73H41.35V48.26h18.13v2.72H44.32v9.95h14.16v2.73H44.32V74.77z"/>
		<path class="st2" d="M86.73,66.6c0,4.87-1.94,11.64-10.69,11.64S65.34,71.47,65.34,66.6V48.26h2.97v18c0,8.42,5.49,9.25,7.72,9.25
			s7.72-0.83,7.72-9.25v-18h2.97V66.6z"/>
		<path class="st2" d="M97.13,77.5h-2.97V48.26h9c5.95,0,9.62,2.56,9.62,7.8c0,4.05-2.68,7.14-7.47,7.56l8.42,13.87h-3.63
			l-8.01-13.58h-4.96V77.5z M97.13,61.19h5.29c5.33,0,7.14-2.31,7.14-5.12s-1.82-5.08-7.14-5.08h-5.29V61.19z"/>
		<path class="st2" d="M118.15,77.5h-3.47l12.72-29.23h2.89l12.72,29.23h-3.47l-3.22-7.68h-14.95L118.15,77.5z M122.49,67.09h12.68
			l-6.32-15.36L122.49,67.09z"/>
		<path class="st2" d="M149.95,74.77h13.63v2.73h-16.6V48.26h2.97V74.77z"/>
		<path class="st2" d="M178.69,48.26h9.7c7.31,0,15.36,4.87,15.36,14.62c0,9.75-8.05,14.62-15.36,14.62h-9.7V48.26z M181.66,74.77
			h5.78c8.92,0,13.09-5.86,13.09-11.89s-4.17-11.89-13.09-11.89h-5.78V74.77z"/>
		<path class="st2" d="M219.07,77.5h-2.97V64.9l-10.94-16.64h3.72l8.71,13.79l8.71-13.79h3.72L219.07,64.9V77.5z"/>
		<path class="st2" d="M254.55,73.04h0.08V48.26h2.97V77.5h-3.72l-17.42-25.02h-0.08V77.5h-2.97V48.26h3.72L254.55,73.04z"/>
		<path class="st2" d="M265.04,77.5h-3.47l12.72-29.23h2.89l12.72,29.23h-3.47l-3.22-7.68h-14.95L265.04,77.5z M269.37,67.09h12.68
			l-6.32-15.36L269.37,67.09z"/>
		<path class="st2" d="M308.27,72.05l9.87-23.78h4.54V77.5h-2.97V52.23h-0.08L309.05,77.5h-1.57l-10.57-25.27h-0.08V77.5h-2.97
			V48.26h4.54L308.27,72.05z"/>
		<path class="st2" d="M333.58,77.5h-2.97V48.26h2.97V77.5z"/>
		<path class="st2" d="M365.59,72.87c-1.94,3.01-5.99,5.37-10.82,5.37c-8.71,0-15.24-6.48-15.24-15.36
			c0-8.88,6.52-15.36,15.24-15.36c3.63,0,7.56,1.36,10.12,4.62l-2.6,1.94c-1.16-1.9-4.42-3.84-7.51-3.84
			c-7.51,0-12.02,5.91-12.02,12.63c0,6.73,4.5,12.64,12.02,12.64c3.06,0,6.19-0.99,8.38-4.38L365.59,72.87z"/>
		<path class="st2" d="M384.42,53.1c-1.28-1.9-3.18-2.85-5.66-2.85c-3.06,0-6.24,1.61-6.24,5.29c0,7.89,14.99,3.72,14.99,14.25
			c0,5.33-5,8.46-9.62,8.46c-3.55,0-6.98-1.28-9.21-4.33l2.68-1.94c1.24,2.15,3.59,3.55,6.65,3.55c2.93,0,6.28-1.9,6.28-5.33
			c0-8.26-14.99-3.67-14.99-14.37c0-5.66,4.71-8.3,9.46-8.3c3.3,0,5.95,0.91,8.26,3.55L384.42,53.1z"/>
	</g>
</g>
</svg>
